<?xml version="1.0" standalone="no"?>
<!DOCTYPE svg PUBLIC "-//W3C//DTD SVG 20010904//EN" "http://www.w3.org/TR/2001/REC-SVG-20010904/DTD/svg10.dtd">
<svg xmlns="http://www.w3.org/2000/svg" version="1.0" width="712.000000pt" height="530.000000pt" viewBox="0 0 712.000000 530.000000" preserveAspectRatio="xMidYMid meet">
<metadata>
Created by potrace 1.16, written by Peter Selinger 2001-2019
<meta name="Producer" content="Online-Convert"/></metadata>
<g transform="translate(0.000000,530.000000) scale(0.100000,-0.100000)" fill="#000000" stroke="none">
<path d="M2528 5268 c-58 -128 -69 -199 -69 -416 1 -214 5 -200 -70 -216 -58 -12 -99 -79 -114 -186 -7 -47 18 -268 36 -330 47 -156 116 -287 193 -368 64 -68 118 -99 209 -123 39 -11 73 -23 76 -27 55 -80 213 -218 367 -320 106 -70 108 -75 96 -210 -5 -55 -13 -86 -22 -92 -8 -6 -53 -10 -100 -10 -90 0 -294 -26 -322 -41 -9 -5 -30 -9 -46 -9 -23 0 -35 8 -50 33 -23 38 -100 86 -197 123 -62 23 -86 26 -200 27 -118 1 -137 -1 -208 -26 -43 -15 -99 -39 -125 -54 -159 -87 -302 -249 -302 -342 0 -37 23 -98 71 -189 46 -89 47 -72 -5 -264 -14 -54 -37 -140 -50 -190 -14 -51 -32 -120 -41 -153 -9 -33 -21 -78 -26 -100 -18 -78 -29 -94 -69 -105 -66 -18 -100 -65 -176 -241 -17 -42 -43 -94 -57 -115 -14 -23 -34 -83 -47 -144 -12 -58 -35 -154 -52 -214 -37 -140 -78 -361 -78 -424 0 -42 5 -52 35 -82 l35 -34 -20 -33 c-26 -45 -47 -123 -55 -208 -4 -38 -13 -79 -21 -90 -29 -41 -21 -45 108 -45 67 0 118 4 112 8 -5 4 -44 19 -87 33 l-79 24 7 47 c7 58 39 135 68 166 12 13 40 33 61 44 44 23 65 21 175 -12 l73 -21 -6 -47 c-6 -52 -8 -109 -7 -189 l1 -53 80 0 c45 0 80 4 80 10 0 16 73 60 128 76 63 19 77 11 87 -47 6 -37 9 -39 41 -39 32 0 34 2 28 28 -4 15 -11 37 -15 50 -15 40 -10 51 29 62 77 20 109 86 142 286 36 224 51 411 57 686 6 294 -1 368 -42 428 l-24 35 49 133 c50 139 92 216 113 209 7 -2 17 -42 23 -93 22 -173 68 -257 198 -364 61 -49 73 -64 85 -106 66 -233 155 -434 213 -478 32 -23 134 -56 176 -56 47 0 52 -27 52 -290 0 -209 -2 -249 -16 -268 -15 -21 -15 -25 2 -43 9 -10 22 -19 29 -19 6 0 50 -40 97 -89 85 -87 88 -89 150 -100 124 -21 480 -6 653 28 135 27 144 31 216 98 71 67 82 92 54 122 -11 13 -16 71 -21 280 -7 250 -6 265 11 277 10 8 28 14 39 14 104 0 176 72 281 277 43 84 95 229 95 267 0 9 35 54 78 99 129 135 168 223 179 399 5 89 9 109 23 113 26 8 43 -2 62 -38 62 -115 198 -389 198 -399 0 -6 -9 -21 -19 -32 -11 -12 -29 -49 -40 -83 -31 -92 -29 -368 4 -688 44 -423 69 -545 117 -564 13 -5 38 -15 56 -22 33 -12 34 -13 29 -63 -2 -28 -8 -61 -12 -73 -12 -37 31 -30 50 7 19 36 43 50 90 50 42 0 110 -32 127 -60 11 -17 24 -20 85 -20 l73 0 1 33 c2 28 2 29 6 5 3 -18 12 -28 30 -33 14 -3 30 -2 34 2 5 5 4 49 -2 98 -5 49 -7 95 -5 102 7 18 -1 16 -26 -7 -27 -25 -41 -13 -36 31 3 30 10 37 76 72 43 23 86 39 106 39 42 0 153 -57 178 -92 20 -28 44 -149 35 -174 -3 -8 -45 -27 -94 -43 l-88 -28 124 -3 c68 -1 125 -1 127 0 6 6 -45 235 -65 292 -27 77 -27 84 9 121 29 30 30 33 20 81 -6 27 -21 110 -35 186 -14 75 -50 225 -80 335 -80 294 -155 484 -221 563 -28 32 -113 80 -145 80 -12 0 -31 45 -74 178 -95 291 -137 416 -147 436 -23 43 -1 156 45 236 52 90 57 103 50 144 -9 57 -38 99 -124 181 -112 107 -203 163 -324 201 -48 15 -91 19 -211 19 -94 0 -160 -4 -175 -12 -13 -6 -44 -19 -69 -28 -59 -22 -105 -57 -137 -107 -30 -45 -25 -44 -178 -13 -44 9 -141 19 -215 22 -85 3 -138 9 -142 17 -4 6 -8 56 -8 112 0 117 -4 112 113 173 159 84 291 192 378 311 34 47 53 64 89 76 91 33 136 60 195 119 130 130 223 415 213 655 -5 120 -24 163 -92 207 -62 40 -65 45 -55 96 26 135 -11 374 -82 536 -13 28 -18 31 -60 31 l-47 0 29 -57 c56 -112 73 -207 73 -408 0 -194 -13 -300 -65 -525 -54 -235 -95 -370 -149 -485 -33 -69 -158 -262 -184 -284 -12 -10 -15 11 -21 123 -7 131 -3 193 16 227 5 9 47 42 93 73 101 66 100 65 116 271 6 77 15 194 21 259 5 66 9 175 10 242 1 111 -1 126 -22 164 -27 47 -60 67 -161 98 -80 25 -137 53 -161 79 -9 11 -28 48 -42 83 -14 35 -37 81 -51 102 -26 37 -28 38 -90 38 l-63 0 49 -46 c48 -45 86 -118 110 -210 5 -22 19 -49 30 -59 11 -10 77 -35 146 -56 149 -45 171 -58 179 -102 9 -44 -11 -424 -30 -572 -21 -168 -24 -176 -103 -229 -122 -81 -114 -60 -128 -339 l-13 -242 -27 -22 c-28 -22 -151 -85 -239 -122 -148 -62 -370 -87 -500 -57 -136 32 -373 167 -405 231 -11 22 -16 79 -20 215 -6 232 -10 240 -158 340 -75 51 -73 46 -91 220 -6 58 -20 188 -31 290 -26 244 -26 275 3 304 13 12 56 33 97 45 41 12 94 29 117 37 44 16 113 83 113 110 0 39 69 162 119 212 l52 52 -60 0 c-60 0 -60 0 -90 -44 -17 -25 -48 -84 -69 -132 -21 -50 -48 -95 -62 -105 -14 -10 -63 -28 -109 -40 -200 -49 -218 -83 -191 -356 12 -121 38 -455 43 -542 3 -50 8 -67 22 -75 72 -42 194 -129 201 -143 5 -10 8 -87 9 -171 l0 -154 -38 44 c-43 49 -174 300 -211 403 -41 116 -79 264 -107 415 -75 416 -69 630 25 852 9 21 16 40 16 43 0 3 -20 5 -44 5 -40 0 -45 -3 -58 -32z m2348 -739 c41 -80 -9 -398 -87 -550 -19 -38 -51 -64 -63 -52 -3 3 -6 -1 -6 -10 0 -9 -3 -18 -8 -21 -19 -12 -4 156 26 274 17 69 41 184 53 255 12 72 26 136 32 143 12 15 32 1 53 -39z m-2405 14 c6 -16 15 -57 20 -93 8 -56 36 -195 81 -408 l11 -53 -38 -34 c-22 -18 -44 -31 -51 -28 -16 6 -61 90 -85 160 -55 159 -79 363 -50 430 22 54 95 70 112 26z m1359 -1512 c0 -21 -44 -60 -92 -81 -44 -19 -63 -21 -117 -16 -77 7 -176 38 -211 67 l-25 20 75 -8 c113 -12 239 -8 285 10 45 17 85 21 85 8z m1168 -1 c34 -6 88 -22 119 -35 123 -55 310 -201 333 -259 7 -18 4 -44 -9 -93 -35 -133 -69 -183 -168 -249 -98 -65 -193 -92 -327 -95 l-74 -1 3 -34 c2 -19 -1 -36 -5 -39 -15 -9 -77 84 -139 210 -60 119 -80 190 -96 330 -4 33 -16 82 -28 109 l-21 49 25 20 c37 31 143 76 201 86 74 12 114 12 186 1z m-2565 -15 c69 -18 145 -55 171 -84 18 -19 18 -22 2 -55 -23 -49 -53 -178 -61 -261 -9 -93 -38 -181 -84 -252 -20 -32 -56 -93 -80 -136 -24 -43 -45 -77 -47 -75 -2 2 8 31 21 64 14 32 25 65 25 72 0 8 -22 12 -78 12 -93 0 -170 19 -255 61 -135 68 -206 128 -246 209 -41 81 -45 104 -23 153 33 73 206 216 318 263 106 44 235 56 337 29z m799 -165 c58 -94 209 -144 433 -145 144 0 152 3 303 103 l112 75 108 -6 c110 -6 317 -42 340 -60 8 -6 10 -17 5 -31 -5 -12 -8 -75 -8 -140 l0 -120 -50 -13 c-86 -22 -190 -42 -404 -78 -113 -20 -218 -40 -233 -46 -30 -12 -50 -54 -69 -148 l-13 -61 -150 2 -151 3 -16 71 c-19 82 -32 110 -58 124 -23 12 -167 39 -366 70 -143 22 -343 67 -358 80 -13 11 11 262 26 276 6 7 46 19 87 28 41 8 104 22 140 31 36 9 103 19 150 24 148 14 137 17 172 -39z m1385 -467 c90 -116 177 -293 170 -345 -2 -15 0 -25 5 -22 20 13 5 -48 -18 -71 -24 -24 -26 -24 -31 -7 -4 18 -7 19 -36 4 -18 -8 -43 -24 -56 -36 -13 -12 -21 -16 -17 -9 4 8 -2 7 -21 -2 -15 -8 -34 -15 -40 -15 -7 0 -13 -3 -13 -7 0 -5 -11 -8 -24 -8 -21 0 -22 3 -13 23 8 16 7 26 -1 34 -7 7 -12 19 -12 28 0 8 -13 21 -30 28 -28 13 -29 17 -24 52 5 31 3 40 -16 53 -16 11 -29 13 -46 7 -33 -13 -50 18 -35 62 9 25 8 28 -2 19 -11 -8 -17 -3 -30 25 -22 45 -57 45 -68 0 -5 -17 -6 -32 -4 -35 3 -2 8 10 11 28 5 22 12 31 23 29 29 -6 42 -49 36 -116 -5 -60 -4 -64 23 -92 16 -15 49 -33 73 -39 74 -19 102 -47 59 -58 -16 -4 -18 -8 -8 -14 16 -11 -19 -12 -75 -2 -25 4 -34 9 -26 14 15 9 15 9 -73 34 -68 19 -101 53 -91 93 4 19 3 23 -7 17 -12 -8 -10 25 6 83 2 9 -3 1 -12 -18 -20 -43 -14 -135 11 -174 10 -15 33 -30 57 -37 40 -10 68 -5 32 7 -38 12 -66 25 -63 29 2 2 29 -5 59 -15 30 -11 49 -19 43 -20 -7 0 -13 -4 -13 -9 0 -5 25 -13 55 -16 30 -4 58 -11 61 -16 6 -11 -1 -11 -131 -13 -59 -1 -100 -5 -100 -11 0 -5 15 -10 33 -11 32 0 82 -39 82 -62 0 -6 7 -12 15 -16 24 -9 18 -33 -19 -73 -30 -34 -36 -36 -51 -23 -10 8 -25 15 -34 15 -9 0 -15 6 -13 13 1 6 -7 12 -18 12 -13 0 -18 -5 -14 -15 4 -9 0 -15 -10 -15 -10 0 -16 8 -16 21 0 11 -6 27 -14 34 -12 12 -15 12 -20 -2 -4 -9 -1 -20 6 -25 10 -6 10 -8 -2 -9 -49 -4 -80 12 -80 41 0 21 27 34 33 17 3 -7 3 2 2 18 -2 17 -4 34 -4 39 -1 6 -7 3 -13 -5 -7 -8 -25 -20 -40 -27 -21 -9 -29 -8 -38 4 -14 16 -70 19 -70 4 0 -5 -7 -7 -15 -4 -9 4 -32 -5 -53 -18 -67 -45 -134 -78 -158 -78 -15 0 -24 -6 -24 -15 0 -8 -7 -15 -16 -15 -10 0 -14 6 -10 15 7 20 -44 95 -65 95 -18 0 -49 -35 -49 -56 0 -6 -17 -30 -37 -52 -21 -22 -51 -56 -66 -76 -43 -53 -118 -78 -242 -80 -55 0 -116 2 -135 6 -196 36 -254 50 -312 73 -70 28 -149 90 -208 163 -19 23 -41 48 -47 56 -7 8 -13 19 -13 24 0 6 -6 12 -12 15 -10 3 -10 7 -1 17 9 10 15 10 27 -3 9 -9 16 -23 16 -33 0 -13 3 -14 15 -4 12 10 13 16 3 28 -11 13 -11 14 1 7 10 -5 12 -4 7 3 -4 7 -15 12 -25 12 -9 0 -22 5 -29 12 -9 9 -12 9 -12 0 0 -7 -4 -12 -10 -12 -14 0 -13 37 1 42 8 3 7 13 -4 33 l-16 30 -1 -35 c0 -30 -2 -32 -14 -20 -12 13 -12 26 0 92 7 43 21 92 30 110 26 50 194 298 203 298 4 0 47 -9 97 -20 95 -21 409 -74 509 -86 33 -3 67 -10 76 -15 10 -5 24 -38 34 -81 29 -118 8 -109 250 -106 l209 3 11 71 c6 39 18 83 28 97 19 29 15 28 232 62 88 14 205 35 260 47 55 12 116 24 135 28 77 17 96 12 127 -27z m-2749 -333 l62 -29 0 -76 c0 -45 -4 -75 -10 -75 -16 0 -91 39 -127 67 -19 13 -33 33 -33 45 0 34 22 98 34 98 6 0 39 -13 74 -30z m3608 -5 c28 -68 24 -76 -74 -140 -68 -46 -82 -45 -82 3 0 20 -4 54 -9 74 -10 44 -4 51 66 78 69 27 82 25 99 -15z m-3669 -206 c42 -37 72 -89 73 -126 0 -26 -118 -6 -153 25 -13 12 -17 25 -13 44 6 33 33 98 40 98 3 0 26 -19 53 -41z m3708 11 c9 -17 13 -36 9 -42 -4 -6 4 -19 17 -29 19 -15 22 -22 13 -36 -13 -22 -144 -69 -167 -60 -25 10 -22 71 6 108 18 25 93 89 104 89 1 0 10 -14 18 -30z m284 -264 c42 -67 122 -277 177 -466 28 -95 84 -318 84 -336 0 -7 -39 -13 -112 -17 -195 -10 -401 -84 -440 -157 -22 -43 -30 -44 -39 -5 -32 136 -80 381 -94 475 -21 139 -35 420 -22 437 11 16 208 80 280 92 28 5 73 9 99 10 42 1 48 -2 67 -33z m-4101 8 c102 -21 218 -60 255 -86 l30 -21 -6 -141 c-3 -78 -13 -181 -22 -231 -19 -106 -123 -506 -135 -519 -5 -5 -25 9 -47 31 -41 43 -103 71 -233 104 -97 25 -259 51 -276 45 -20 -8 -18 18 16 147 70 271 197 613 247 670 20 22 69 22 171 1z m1945 -203 c103 -53 194 -80 312 -92 92 -10 220 -6 304 8 26 4 32 2 29 -8 -6 -19 -98 -51 -126 -44 -13 3 -21 2 -18 -3 6 -11 -41 -62 -58 -62 -7 0 -21 -9 -31 -20 -10 -11 -26 -20 -37 -20 -10 0 -18 -5 -18 -11 0 -5 4 -8 9 -5 5 3 12 -1 15 -10 5 -12 2 -15 -11 -9 -106 42 -238 65 -370 65 -136 0 -254 -19 -400 -66 -105 -34 -113 -35 -141 -20 -36 18 -85 76 -108 126 -9 19 -25 45 -36 57 l-20 22 128 -6 c194 -9 320 23 451 111 20 14 40 26 44 26 3 0 40 -17 82 -39z m94 -501 c109 -25 200 -65 220 -99 10 -16 10 -22 0 -28 -6 -4 -141 -8 -300 -8 -258 -2 -287 0 -285 14 2 9 -9 24 -25 34 -15 9 -25 22 -22 27 6 10 148 56 215 69 51 10 126 7 197 -9z m-2370 -176 c152 -22 337 -77 376 -111 9 -9 17 -27 17 -41 0 -30 35 -63 148 -142 48 -33 83 -60 79 -60 -4 0 -54 22 -110 49 -188 89 -365 134 -571 146 -55 3 -101 7 -103 9 -10 10 31 166 43 166 8 0 62 -7 121 -16z m4707 -9 c3 -8 8 -44 12 -80 l7 -65 -80 0 c-100 0 -215 -20 -379 -65 -106 -29 -128 -32 -140 -21 -11 12 -10 17 8 32 11 11 29 36 40 57 16 32 32 45 91 72 144 66 425 111 441 70z m-2244 -49 c104 -22 275 -83 275 -98 0 -30 -190 -73 -399 -90 -127 -10 -157 -10 -250 5 -58 10 -118 23 -133 29 -15 6 -39 13 -52 14 -46 6 -45 22 0 34 24 7 50 14 57 16 8 2 12 15 10 31 -3 26 1 29 47 40 133 34 336 42 445 19z m5 -302 c61 -3 114 -11 135 -21 l35 -16 -32 -14 c-58 -23 -347 -38 -486 -25 -290 27 -268 85 30 81 79 -1 147 1 151 5 4 4 20 5 37 1 16 -4 75 -9 130 -11z m-2055 -81 c84 -20 92 -29 39 -43 -86 -22 -115 -33 -161 -61 -53 -32 -51 -34 -48 51 2 79 6 83 58 75 26 -3 76 -13 112 -22z m3880 1 c6 -14 10 -52 10 -85 l0 -59 -45 34 c-34 27 -58 36 -102 41 -97 10 -108 14 -92 29 19 18 157 65 192 66 20 0 30 -7 37 -26z"/>
<path d="M3595 1350 c-3 -5 -24 -10 -46 -10 -32 0 -39 -3 -39 -20 0 -13 -5 -18 -15 -14 -9 4 -15 0 -15 -10 0 -9 -8 -16 -19 -16 -35 0 -32 -19 4 -26 25 -4 35 -11 35 -25 0 -12 7 -19 20 -19 11 0 20 4 20 9 0 5 9 11 20 14 11 3 20 1 20 -5 0 -6 7 -7 15 -4 8 3 23 9 32 13 13 5 15 3 10 -11 -6 -15 -3 -17 15 -12 13 3 26 6 30 6 4 0 4 8 1 18 -7 16 -6 16 11 0 9 -10 28 -18 41 -18 12 0 25 -7 29 -15 6 -17 36 -21 36 -4 0 5 -4 8 -9 4 -5 -3 -12 -1 -16 5 -4 6 6 10 24 10 17 0 34 7 39 16 7 13 13 14 28 6 10 -6 14 -12 7 -12 -12 0 -6 -40 7 -40 4 0 12 11 18 24 9 20 8 25 -4 30 -9 3 -13 10 -10 15 4 5 -20 17 -51 26 -32 9 -67 20 -78 25 -18 9 -143 50 -151 50 -1 0 -6 -4 -9 -10z"/>
<path d="M3555 5215 c-5 -2 -35 -11 -65 -20 -30 -9 -67 -28 -82 -43 -24 -22 -28 -33 -28 -83 0 -115 56 -139 293 -122 84 6 163 15 174 22 28 14 35 40 36 118 1 76 -20 105 -88 122 -39 10 -215 14 -240 6z"/>
<path d="M4000 4851 c-40 -10 -84 -40 -108 -75 -44 -64 -57 -130 -57 -291 0 -142 1 -153 27 -207 34 -74 74 -101 139 -95 152 13 207 127 197 413 -4 114 -7 136 -29 174 -35 63 -104 96 -169 81z m40 -136 c18 -22 24 -123 10 -188 -14 -68 -40 -97 -86 -97 -51 0 -71 34 -79 135 -8 90 2 137 34 155 26 15 107 12 121 -5z"/>
<path d="M3165 4832 c-45 -28 -93 -87 -104 -129 -18 -65 -13 -250 9 -338 37 -144 84 -197 178 -198 83 -1 149 49 179 138 14 39 18 82 18 195 -1 156 -10 198 -62 272 -48 70 -154 99 -218 60z m167 -109 c15 -13 18 -32 18 -110 0 -92 -14 -146 -44 -165 -21 -14 -63 -8 -97 15 -27 18 -35 31 -41 67 -9 63 1 144 23 180 17 27 23 30 71 30 34 0 58 -6 70 -17z"/>
<path d="M3860 3841 c-87 -92 -120 -106 -236 -99 -91 6 -145 32 -225 108 -69 67 -111 79 -130 37 -13 -29 0 -63 42 -111 124 -142 348 -182 526 -94 100 49 184 154 169 212 -5 21 -12 26 -39 26 -28 0 -44 -12 -107 -79z"/>
</g>
</svg>
